<svg xmlns="http://www.w3.org/2000/svg" viewBox="0 0 400 400" width="400" height="400">
  <defs>
    <filter id="pDrop" x="-5%" y="-5%" width="110%" height="110%">
      <feDropShadow dx="0" dy="4" stdDeviation="6" flood-opacity="0.15"/>
    </filter>
  </defs>
  <rect x="10" y="10" width="380" height="380" rx="16" fill="#f8fafc" stroke="#e2e8f0" stroke-width="2"/>
  <!-- Header Banner -->
  <rect x="10" y="10" width="380" height="36" rx="14" fill="#004A99"/>
  <text x="200" y="32" font-family="ui-sans-serif, system-ui, -apple-system, BlinkMacSystemFont, 'Segoe UI', Roboto, sans-serif" font-size="13" font-weight="900" fill="#ffffff" text-anchor="middle" letter-spacing="1">LOGISTICS LABEL SHEET A4</text>

  <!-- Product Illustration Art -->
  <g transform="translate(0, 45)" filter="url(#pDrop)">
    <rect x="130" y="30" width="140" height="175" fill="#ffffff" stroke="#cbd5e1" stroke-width="2"/>
<rect x="140" y="45" width="55" height="35" rx="2" fill="#f1f5f9" stroke="#94a3b8" stroke-width="1"/>
<rect x="205" y="45" width="55" height="35" rx="2" fill="#f1f5f9" stroke="#94a3b8" stroke-width="1"/>
<rect x="140" y="90" width="55" height="35" rx="2" fill="#f1f5f9" stroke="#94a3b8" stroke-width="1"/>
<rect x="205" y="90" width="55" height="35" rx="2" fill="#f1f5f9" stroke="#94a3b8" stroke-width="1"/>
<rect x="140" y="135" width="55" height="35" rx="2" fill="#f1f5f9" stroke="#94a3b8" stroke-width="1"/>
<rect x="205" y="135" width="55" height="35" rx="2" fill="#f1f5f9" stroke="#94a3b8" stroke-width="1"/>
  </g>

  <!-- Product UPC Barcode Placard -->
  <g transform="translate(40, 270)">
    <rect x="0" y="0" width="320" height="90" rx="6" fill="#ffffff" stroke="#cbd5e1" stroke-width="1.5"/>
    <g transform="translate(30, -5)">
      <rect x="20.00" y="25" width="7.31" height="55" fill="#111827"/>
      <rect x="28.12" y="25" width="7.31" height="55" fill="#111827"/>
      <rect x="52.50" y="25" width="7.31" height="55" fill="#111827"/>
      <rect x="60.62" y="25" width="7.31" height="55" fill="#111827"/>
      <rect x="68.75" y="25" width="7.31" height="55" fill="#111827"/>
      <rect x="76.88" y="25" width="7.31" height="55" fill="#111827"/>
      <rect x="85.00" y="25" width="7.31" height="55" fill="#111827"/>
      <rect x="93.12" y="25" width="7.31" height="55" fill="#111827"/>
      <rect x="125.62" y="25" width="7.31" height="55" fill="#111827"/>
      <rect x="158.12" y="25" width="7.31" height="55" fill="#111827"/>
      <rect x="166.25" y="25" width="7.31" height="55" fill="#111827"/>
      <rect x="174.38" y="25" width="7.31" height="55" fill="#111827"/>
      <rect x="190.62" y="25" width="7.31" height="55" fill="#111827"/>
      <rect x="198.75" y="25" width="7.31" height="55" fill="#111827"/>
      <rect x="223.12" y="25" width="7.31" height="55" fill="#111827"/>
      <rect x="247.50" y="25" width="7.31" height="55" fill="#111827"/>
      <rect x="255.62" y="25" width="7.31" height="55" fill="#111827"/>
      <rect x="263.75" y="25" width="7.31" height="55" fill="#111827"/>
      <rect x="271.88" y="25" width="7.31" height="55" fill="#111827"/>
    </g>
    <text x="160" y="80" font-family="'Courier New', Courier, monospace" font-size="12" font-weight="900" fill="#0f172a" text-anchor="middle">UPC: 052000002107 · SKU: 052000002</text>
  </g>
</svg>