<svg xmlns="http://www.w3.org/2000/svg" viewBox="0 0 600 200" width="600" height="200">
  <rect x="10" y="10" width="580" height="180" rx="10" fill="#0f172a" stroke="#38bdf8" stroke-width="3"/>
  <!-- Status photo-eye dot -->
  <circle cx="40" cy="40" r="8" fill="#10b981"/>
  <circle cx="40" cy="40" r="14" fill="none" stroke="#10b981" opacity="0.4"/>
  <text x="70" y="46" font-family="ui-sans-serif, system-ui, -apple-system, BlinkMacSystemFont, 'Segoe UI', Roboto, sans-serif" font-size="18" font-weight="900" fill="#f8fafc" letter-spacing="1">PUTWALL 01 · TAKEAWAY INDUCTION CONVEYOR</text>
  <rect x="40" y="65" width="520" height="85" rx="4" fill="#ffffff"/>
  <g transform="translate(110, 52)">
    <rect x="20.00" y="25" width="5.85" height="55" fill="#111827"/>
      <rect x="26.50" y="25" width="5.85" height="55" fill="#111827"/>
      <rect x="33.00" y="25" width="5.85" height="55" fill="#111827"/>
      <rect x="39.50" y="25" width="5.85" height="55" fill="#111827"/>
      <rect x="52.50" y="25" width="5.85" height="55" fill="#111827"/>
      <rect x="59.00" y="25" width="5.85" height="55" fill="#111827"/>
      <rect x="65.50" y="25" width="5.85" height="55" fill="#111827"/>
      <rect x="72.00" y="25" width="5.85" height="55" fill="#111827"/>
      <rect x="78.50" y="25" width="5.85" height="55" fill="#111827"/>
      <rect x="91.50" y="25" width="5.85" height="55" fill="#111827"/>
      <rect x="104.50" y="25" width="5.85" height="55" fill="#111827"/>
      <rect x="117.50" y="25" width="5.85" height="55" fill="#111827"/>
      <rect x="124.00" y="25" width="5.85" height="55" fill="#111827"/>
      <rect x="137.00" y="25" width="5.85" height="55" fill="#111827"/>
      <rect x="143.50" y="25" width="5.85" height="55" fill="#111827"/>
      <rect x="150.00" y="25" width="5.85" height="55" fill="#111827"/>
      <rect x="156.50" y="25" width="5.85" height="55" fill="#111827"/>
      <rect x="163.00" y="25" width="5.85" height="55" fill="#111827"/>
      <rect x="169.50" y="25" width="5.85" height="55" fill="#111827"/>
      <rect x="176.00" y="25" width="5.85" height="55" fill="#111827"/>
      <rect x="182.50" y="25" width="5.85" height="55" fill="#111827"/>
      <rect x="195.50" y="25" width="5.85" height="55" fill="#111827"/>
      <rect x="215.00" y="25" width="5.85" height="55" fill="#111827"/>
      <rect x="228.00" y="25" width="5.85" height="55" fill="#111827"/>
      <rect x="241.00" y="25" width="5.85" height="55" fill="#111827"/>
      <rect x="260.50" y="25" width="5.85" height="55" fill="#111827"/>
      <rect x="267.00" y="25" width="5.85" height="55" fill="#111827"/>
      <rect x="273.50" y="25" width="5.85" height="55" fill="#111827"/>
  </g>
  <text x="300" y="180" font-family="'Courier New', Courier, monospace" font-size="14" font-weight="800" fill="#38bdf8" text-anchor="middle" letter-spacing="3">RMR-TAKEAWAY · AUTOMATED DISPATCH</text>
</svg>