<svg xmlns="http://www.w3.org/2000/svg" viewBox="0 0 500 220" width="500" height="220">
  <circle cx="80" cy="18" r="8" fill="none" stroke="#64748b" stroke-width="4"/>
  <circle cx="420" cy="18" r="8" fill="none" stroke="#64748b" stroke-width="4"/>
  <rect x="10" y="28" width="480" height="184" rx="10" fill="#004A99" stroke="#1d4ed8" stroke-width="3"/>
  <rect x="20" y="38" width="460" height="164" rx="8" fill="none" stroke="#ffffff" stroke-width="2"/>
  
  <text x="250" y="76" font-family="ui-sans-serif, system-ui, -apple-system, BlinkMacSystemFont, 'Segoe UI', Roboto, sans-serif" font-size="24" font-weight="900" fill="#ffffff" text-anchor="middle" letter-spacing="2">PRIORITY TASK GROUP · FEX</text>
  <rect x="70" y="90" width="360" height="74" rx="4" fill="#ffffff"/>
  <g transform="translate(65, 78)">
    <rect x="20.00" y="25" width="6.50" height="55" fill="#111827"/>
      <rect x="27.22" y="25" width="6.50" height="55" fill="#111827"/>
      <rect x="34.44" y="25" width="6.50" height="55" fill="#111827"/>
      <rect x="48.89" y="25" width="6.50" height="55" fill="#111827"/>
      <rect x="70.56" y="25" width="6.50" height="55" fill="#111827"/>
      <rect x="77.78" y="25" width="6.50" height="55" fill="#111827"/>
      <rect x="92.22" y="25" width="6.50" height="55" fill="#111827"/>
      <rect x="99.44" y="25" width="6.50" height="55" fill="#111827"/>
      <rect x="121.11" y="25" width="6.50" height="55" fill="#111827"/>
      <rect x="128.33" y="25" width="6.50" height="55" fill="#111827"/>
      <rect x="135.56" y="25" width="6.50" height="55" fill="#111827"/>
      <rect x="150.00" y="25" width="6.50" height="55" fill="#111827"/>
      <rect x="157.22" y="25" width="6.50" height="55" fill="#111827"/>
      <rect x="186.11" y="25" width="6.50" height="55" fill="#111827"/>
      <rect x="193.33" y="25" width="6.50" height="55" fill="#111827"/>
      <rect x="200.56" y="25" width="6.50" height="55" fill="#111827"/>
      <rect x="207.78" y="25" width="6.50" height="55" fill="#111827"/>
      <rect x="215.00" y="25" width="6.50" height="55" fill="#111827"/>
      <rect x="222.22" y="25" width="6.50" height="55" fill="#111827"/>
      <rect x="251.11" y="25" width="6.50" height="55" fill="#111827"/>
      <rect x="265.56" y="25" width="6.50" height="55" fill="#111827"/>
      <rect x="272.78" y="25" width="6.50" height="55" fill="#111827"/>
  </g>
  <text x="250" y="196" font-family="'Courier New', Courier, monospace" font-size="16" font-weight="900" fill="#ffffff" text-anchor="middle" letter-spacing="6">SCAN: FEX</text>
</svg>