<svg xmlns="http://www.w3.org/2000/svg" viewBox="0 0 600 420" width="600" height="420">
  <defs>
    <linearGradient id="hazYellowL" x1="0%" y1="0%" x2="0%" y2="100%">
      <stop offset="0%" stopColor="#fef08a"/>
      <stop offset="100%" stopColor="#ca8a04"/>
    </linearGradient>
  </defs>
  <polygon points="50,70 550,70 510,380 90,380" fill="url(#hazYellowL)" stroke="#854d0e" stroke-width="3"/>
  <rect x="35" y="45" width="530" height="35" rx="6" fill="#eab308" stroke="#854d0e" stroke-width="2"/>

  <!-- Chemical Bottle sealed in secondary clear containment ziplock bag -->
  <g transform="translate(200, 20)">
    <!-- Bag outline -->
    <rect x="0" y="0" width="200" height="150" rx="8" fill="#ffffff" fill-opacity="0.4" stroke="#38bdf8" stroke-width="2"/>
    <rect x="0" y="0" width="200" height="16" fill="#0284c7"/>
    <text x="100" y="12" font-family="ui-sans-serif, system-ui, -apple-system, BlinkMacSystemFont, 'Segoe UI', Roboto, sans-serif" font-size="9" font-weight="800" fill="#ffffff" text-anchor="middle">SECONDARY ZIPLOCK SEALED</text>
    <!-- Leaking solvent can inside -->
    <rect x="50" y="30" width="100" height="90" rx="6" fill="#64748b" stroke="#334155" stroke-width="2"/>
    <polygon points="100,50 125,75 100,100 75,75" fill="#dc2626"/>
    <text x="100" y="79" font-family="ui-sans-serif, system-ui, -apple-system, BlinkMacSystemFont, 'Segoe UI', Roboto, sans-serif" font-size="10" font-weight="900" fill="#ffffff" text-anchor="middle">FLAM</text>
  </g>

  <!-- Foreground wall -->
  <polygon points="50,70 550,70 510,380 90,380" fill="#ca8a04" opacity="0.95"/>
  <rect x="35" y="45" width="530" height="35" rx="6" fill="#eab308" stroke="#854d0e" stroke-width="2"/>
  <rect x="180" y="230" width="240" height="85" rx="4" fill="#ffffff" stroke="#b91c1c" stroke-width="2"/>
  <text x="300" y="258" font-family="ui-sans-serif, system-ui, -apple-system, BlinkMacSystemFont, 'Segoe UI', Roboto, sans-serif" font-size="14" font-weight="900" fill="#b91c1c" text-anchor="middle">CONTAINED SPILL ACTIVE</text>
  <rect x="210" y="268" width="180" height="32" fill="#854d0e"/>
  <text x="300" y="289" font-family="'Courier New', Courier, monospace" font-size="13" font-weight="900" fill="#fef08a" text-anchor="middle">TOTE-09-HAZ</text>
</svg>